<?xml version="1.0" encoding="UTF-8" standalone="no"?>
<!DOCTYPE svg PUBLIC "-//W3C//DTD SVG 1.1//EN"
 "http://www.w3.org/Graphics/SVG/1.1/DTD/svg11.dtd">
<!-- Generated by graphviz version 14.1.2 (20260124.0452)
 -->
<!-- Title: wealthsimple_deepsearch Pages: 1 -->
<svg width="740pt" height="502pt"
 viewBox="0.00 0.00 740.00 502.00" xmlns="http://www.w3.org/2000/svg" xmlns:xlink="http://www.w3.org/1999/xlink">
<g id="graph0" class="graph" transform="scale(1 1) rotate(0) translate(4 498)">
<title>wealthsimple_deepsearch</title>
<polygon fill="white" stroke="none" points="-4,4 -4,-498 736,-498 736,4 -4,4"/>
<g id="clust1" class="cluster">
<title>cluster_browser</title>
<polygon fill="#f0f4ff" stroke="black" points="8,-341 8,-472 296.38,-472 296.38,-341 8,-341"/>
<text xml:space="preserve" text-anchor="middle" x="152.19" y="-454.7" font-family="Times,serif" font-size="14.00">Browser</text>
</g>
<g id="clust2" class="cluster">
<title>cluster_server</title>
<polygon fill="#fff7e6" stroke="black" points="384.25,-371 384.25,-486 701.62,-486 701.62,-371 384.25,-371"/>
<text xml:space="preserve" text-anchor="middle" x="542.94" y="-468.7" font-family="Times,serif" font-size="14.00">Local Server &#160;(localhost:8000)</text>
</g>
<g id="clust3" class="cluster">
<title>cluster_agent</title>
<polygon fill="#eef7ee" stroke="black" points="190.88,-232 190.88,-309 472.12,-309 472.12,-232 190.88,-232"/>
<text xml:space="preserve" text-anchor="middle" x="331.5" y="-291.7" font-family="Times,serif" font-size="14.00">Smolagents CodeAgent</text>
</g>
<g id="clust4" class="cluster">
<title>cluster_search</title>
<polygon fill="#fdf0ff" stroke="black" points="590.88,-232 590.88,-363 712.88,-363 712.88,-232 590.88,-232"/>
<text xml:space="preserve" text-anchor="middle" x="651.88" y="-345.7" font-family="Times,serif" font-size="14.00">Search Tools</text>
</g>
<g id="clust5" class="cluster">
<title>cluster_finance</title>
<polygon fill="#fff0f0" stroke="black" points="572.75,-147 572.75,-224 732,-224 732,-147 572.75,-147"/>
<text xml:space="preserve" text-anchor="middle" x="652.38" y="-206.7" font-family="Times,serif" font-size="14.00">Financial Tools (yfinance)</text>
</g>
<g id="clust6" class="cluster">
<title>cluster_claude</title>
<polygon fill="#f0f8ff" stroke="black" points="574.62,-8 574.62,-139 730.12,-139 730.12,-8 574.62,-8"/>
<text xml:space="preserve" text-anchor="middle" x="652.38" y="-121.7" font-family="Times,serif" font-size="14.00">Claude Tools (Anthropic)</text>
</g>
<!-- WS -->
<g id="node1" class="node">
<title>WS</title>
<polygon fill="#dce8ff" stroke="black" points="102.88,-439 22.38,-439 22.38,-403 102.88,-403 102.88,-439"/>
<text xml:space="preserve" text-anchor="middle" x="62.62" y="-422.55" font-family="Helvetica,sans-Serif" font-size="11.00">Wealthsimple</text>
<text xml:space="preserve" text-anchor="middle" x="62.62" y="-410.55" font-family="Helvetica,sans-Serif" font-size="11.00">(stock page)</text>
</g>
<!-- GM -->
<g id="node2" class="node">
<title>GM</title>
<polygon fill="#c8daff" stroke="black" points="288.38,-438 199.62,-438 199.62,-402 288.38,-402 288.38,-438"/>
<text xml:space="preserve" text-anchor="middle" x="244" y="-421.55" font-family="Helvetica,sans-Serif" font-size="11.00">Greasemonkey</text>
<text xml:space="preserve" text-anchor="middle" x="244" y="-409.55" font-family="Helvetica,sans-Serif" font-size="11.00">userscript</text>
</g>
<!-- WS&#45;&gt;GM -->
<g id="edge1" class="edge">
<title>WS&#45;&gt;GM</title>
<path fill="none" stroke="black" d="M102.99,-420.78C127.9,-420.64 160.46,-420.46 187.91,-420.31"/>
<polygon fill="black" stroke="black" points="187.83,-423.81 197.81,-420.25 187.79,-416.81 187.83,-423.81"/>
<text xml:space="preserve" text-anchor="middle" x="153.5" y="-423.82" font-family="Times,serif" font-size="14.00">page load</text>
</g>
<!-- API -->
<g id="node4" class="node">
<title>API</title>
<polygon fill="#ffe0a0" stroke="black" points="465.25,-415 392.25,-415 392.25,-379 465.25,-379 465.25,-415"/>
<text xml:space="preserve" text-anchor="middle" x="428.75" y="-398.55" font-family="Helvetica,sans-Serif" font-size="11.00">FastAPI</text>
<text xml:space="preserve" text-anchor="middle" x="428.75" y="-386.55" font-family="Helvetica,sans-Serif" font-size="11.00">/health &#160;/run</text>
</g>
<!-- GM&#45;&gt;API -->
<g id="edge2" class="edge">
<title>GM&#45;&gt;API</title>
<path fill="none" stroke="black" d="M288.77,-414.49C316.52,-411 352.4,-406.48 380.75,-402.92"/>
<polygon fill="black" stroke="black" points="381.01,-406.41 390.5,-401.69 380.14,-399.46 381.01,-406.41"/>
<text xml:space="preserve" text-anchor="middle" x="341.25" y="-431.6" font-family="Times,serif" font-size="14.00">GET /health</text>
<text xml:space="preserve" text-anchor="middle" x="341.25" y="-415.1" font-family="Times,serif" font-size="14.00">POST /run</text>
</g>
<!-- UI -->
<g id="node3" class="node">
<title>UI</title>
<polygon fill="#dce8ff" stroke="black" points="109.25,-385 16,-385 16,-349 109.25,-349 109.25,-385"/>
<text xml:space="preserve" text-anchor="middle" x="62.62" y="-368.55" font-family="Helvetica,sans-Serif" font-size="11.00">About section</text>
<text xml:space="preserve" text-anchor="middle" x="62.62" y="-356.55" font-family="Helvetica,sans-Serif" font-size="11.00">(injected HTML)</text>
</g>
<!-- API&#45;&gt;UI -->
<g id="edge3" class="edge">
<title>API&#45;&gt;UI</title>
<path fill="none" stroke="black" d="M391.93,-390.28C365.59,-385.62 328.88,-379.69 296.38,-376.5 236.7,-370.65 168.07,-368.39 120.88,-367.52"/>
<polygon fill="black" stroke="black" points="121.23,-364.03 111.17,-367.36 121.11,-371.03 121.23,-364.03"/>
<text xml:space="preserve" text-anchor="middle" x="244" y="-379.7" font-family="Times,serif" font-size="14.00">injected result</text>
</g>
<!-- CACHE -->
<g id="node5" class="node">
<title>CACHE</title>
<path fill="#ffe0a0" stroke="black" d="M693.62,-419C693.62,-421.21 674.91,-423 651.88,-423 628.84,-423 610.12,-421.21 610.12,-419 610.12,-419 610.12,-383 610.12,-383 610.12,-380.79 628.84,-379 651.88,-379 674.91,-379 693.62,-380.79 693.62,-383 693.62,-383 693.62,-419 693.62,-419"/>
<path fill="none" stroke="black" d="M693.62,-419C693.62,-416.79 674.91,-415 651.88,-415 628.84,-415 610.12,-416.79 610.12,-419"/>
<text xml:space="preserve" text-anchor="middle" x="651.88" y="-402.55" font-family="Helvetica,sans-Serif" font-size="11.00">SQLite Cache</text>
<text xml:space="preserve" text-anchor="middle" x="651.88" y="-390.55" font-family="Helvetica,sans-Serif" font-size="11.00">(cache.py)</text>
</g>
<!-- API&#45;&gt;CACHE -->
<g id="edge4" class="edge">
<title>API&#45;&gt;CACHE</title>
<path fill="none" stroke="black" d="M465.6,-397.24C492.37,-397.46 529.85,-397.85 562.75,-398.5 574.23,-398.73 586.54,-399.04 598.22,-399.36"/>
<polygon fill="black" stroke="black" points="598.02,-402.85 608.12,-399.64 598.22,-395.86 598.02,-402.85"/>
<text xml:space="preserve" text-anchor="middle" x="523" y="-401.7" font-family="Times,serif" font-size="14.00">lookup</text>
</g>
<!-- AGENT -->
<g id="node6" class="node">
<title>AGENT</title>
<polygon fill="#b8e0b8" stroke="black" points="464.12,-276 393.38,-276 393.38,-240 464.12,-240 464.12,-276"/>
<text xml:space="preserve" text-anchor="middle" x="428.75" y="-259.55" font-family="Helvetica,sans-Serif" font-size="11.00">CodeAgent</text>
<text xml:space="preserve" text-anchor="middle" x="428.75" y="-247.55" font-family="Helvetica,sans-Serif" font-size="11.00">(main.py)</text>
</g>
<!-- API&#45;&gt;AGENT -->
<g id="edge6" class="edge">
<title>API&#45;&gt;AGENT</title>
<path fill="none" stroke="black" d="M428.75,-378.91C428.75,-355.8 428.75,-315.5 428.75,-287.82"/>
<polygon fill="black" stroke="black" points="432.25,-287.97 428.75,-277.97 425.25,-287.97 432.25,-287.97"/>
<text xml:space="preserve" text-anchor="middle" x="409.25" y="-330.7" font-family="Times,serif" font-size="14.00">cache miss</text>
<text xml:space="preserve" text-anchor="middle" x="409.25" y="-314.2" font-family="Times,serif" font-size="14.00">→ run task</text>
</g>
<!-- CACHE&#45;&gt;API -->
<g id="edge5" class="edge">
<title>CACHE&#45;&gt;API</title>
<path fill="none" stroke="black" stroke-dasharray="5,2" d="M609.66,-410.04C575.6,-416.17 526.05,-422.01 483.25,-415 481.07,-414.64 478.87,-414.21 476.65,-413.72"/>
<polygon fill="black" stroke="black" points="477.63,-410.36 467.07,-411.21 475.86,-417.13 477.63,-410.36"/>
<text xml:space="preserve" text-anchor="middle" x="523" y="-421.39" font-family="Times,serif" font-size="14.00">hit / miss</text>
</g>
<!-- AGENT&#45;&gt;API -->
<g id="edge14" class="edge">
<title>AGENT&#45;&gt;API</title>
<path fill="none" stroke="black" stroke-dasharray="5,2" d="M428.75,-276.46C428.75,-299.75 428.75,-340.07 428.75,-367.62"/>
<polygon fill="black" stroke="black" points="425.25,-367.39 428.75,-377.39 432.25,-367.39 425.25,-367.39"/>
<text xml:space="preserve" text-anchor="middle" x="417.5" y="-322.45" font-family="Times,serif" font-size="14.00">return result</text>
</g>
<!-- AGENT&#45;&gt;CACHE -->
<g id="edge13" class="edge">
<title>AGENT&#45;&gt;CACHE</title>
<path fill="none" stroke="black" d="M443.33,-276.3C453.39,-289.04 467.96,-305.84 483.25,-318 518.38,-345.93 564.43,-367.89 599.38,-382.19"/>
<polygon fill="black" stroke="black" points="597.85,-385.35 608.43,-385.82 600.45,-378.85 597.85,-385.35"/>
<text xml:space="preserve" text-anchor="middle" x="523" y="-368.61" font-family="Times,serif" font-size="14.00">store result</text>
</g>
<!-- PERP -->
<g id="node8" class="node">
<title>PERP</title>
<polygon fill="#e8ccff" stroke="black" points="704.88,-330 598.88,-330 598.88,-294 704.88,-294 704.88,-330"/>
<text xml:space="preserve" text-anchor="middle" x="651.88" y="-313.55" font-family="Helvetica,sans-Serif" font-size="11.00">Perplexity API</text>
<text xml:space="preserve" text-anchor="middle" x="651.88" y="-301.55" font-family="Helvetica,sans-Serif" font-size="11.00">(scoped + generic)</text>
</g>
<!-- AGENT&#45;&gt;PERP -->
<g id="edge8" class="edge">
<title>AGENT&#45;&gt;PERP</title>
<path fill="none" stroke="black" d="M464.55,-272.7C470.71,-275 477.12,-277.21 483.25,-279 517.1,-288.89 555.67,-296.71 587.27,-302.25"/>
<polygon fill="black" stroke="black" points="586.63,-305.69 597.08,-303.93 587.81,-298.79 586.63,-305.69"/>
<text xml:space="preserve" text-anchor="middle" x="523" y="-300.51" font-family="Times,serif" font-size="14.00">search</text>
</g>
<!-- DDG -->
<g id="node9" class="node">
<title>DDG</title>
<polygon fill="#e8ccff" stroke="black" points="691.75,-276 612,-276 612,-240 691.75,-240 691.75,-276"/>
<text xml:space="preserve" text-anchor="middle" x="651.88" y="-253.55" font-family="Helvetica,sans-Serif" font-size="11.00">DuckDuckGo</text>
</g>
<!-- AGENT&#45;&gt;DDG -->
<g id="edge9" class="edge">
<title>AGENT&#45;&gt;DDG</title>
<path fill="none" stroke="black" d="M464.3,-258C500.83,-258 558.81,-258 600.45,-258"/>
<polygon fill="black" stroke="black" points="600.21,-261.5 610.21,-258 600.21,-254.5 600.21,-261.5"/>
<text xml:space="preserve" text-anchor="middle" x="523" y="-261.2" font-family="Times,serif" font-size="14.00">search</text>
</g>
<!-- YF -->
<g id="node10" class="node">
<title>YF</title>
<polygon fill="#ffc8c8" stroke="black" points="682.38,-191 621.38,-191 621.38,-155 682.38,-155 682.38,-191"/>
<text xml:space="preserve" text-anchor="middle" x="651.88" y="-174.55" font-family="Helvetica,sans-Serif" font-size="11.00">yfinance</text>
<text xml:space="preserve" text-anchor="middle" x="651.88" y="-162.55" font-family="Helvetica,sans-Serif" font-size="11.00">(19 tools)</text>
</g>
<!-- AGENT&#45;&gt;YF -->
<g id="edge10" class="edge">
<title>AGENT&#45;&gt;YF</title>
<path fill="none" stroke="black" d="M464.3,-244.72C503.88,-229.5 568.66,-204.6 610.53,-188.51"/>
<polygon fill="black" stroke="black" points="611.68,-191.82 619.76,-184.96 609.17,-185.28 611.68,-191.82"/>
<text xml:space="preserve" text-anchor="middle" x="523" y="-238.4" font-family="Times,serif" font-size="14.00">financials</text>
</g>
<!-- HYPO -->
<g id="node11" class="node">
<title>HYPO</title>
<polygon fill="#b0d8ff" stroke="black" points="686.5,-106 617.25,-106 617.25,-70 686.5,-70 686.5,-106"/>
<text xml:space="preserve" text-anchor="middle" x="651.88" y="-89.55" font-family="Helvetica,sans-Serif" font-size="11.00">Hypothesis</text>
<text xml:space="preserve" text-anchor="middle" x="651.88" y="-77.55" font-family="Helvetica,sans-Serif" font-size="11.00">Generator</text>
</g>
<!-- AGENT&#45;&gt;HYPO -->
<g id="edge11" class="edge">
<title>AGENT&#45;&gt;HYPO</title>
<path fill="none" stroke="black" d="M440.83,-239.64C450.64,-224.41 466.06,-202.85 483.25,-187.5 520.71,-154.07 571.05,-125.97 606.76,-108.25"/>
<polygon fill="black" stroke="black" points="608.06,-111.51 615.52,-103.97 604.99,-105.21 608.06,-111.51"/>
<text xml:space="preserve" text-anchor="middle" x="523" y="-190.7" font-family="Times,serif" font-size="14.00">hypothesis</text>
</g>
<!-- FMT -->
<g id="node12" class="node">
<title>FMT</title>
<polygon fill="#b0d8ff" stroke="black" points="692.5,-52 611.25,-52 611.25,-16 692.5,-16 692.5,-52"/>
<text xml:space="preserve" text-anchor="middle" x="651.88" y="-35.55" font-family="Helvetica,sans-Serif" font-size="11.00">HTML Output</text>
<text xml:space="preserve" text-anchor="middle" x="651.88" y="-23.55" font-family="Helvetica,sans-Serif" font-size="11.00">Formatter</text>
</g>
<!-- AGENT&#45;&gt;FMT -->
<g id="edge12" class="edge">
<title>AGENT&#45;&gt;FMT</title>
<path fill="none" stroke="black" d="M432.32,-239.9C437.36,-210.24 450.98,-150.77 483.25,-112.5 513.23,-76.95 562.88,-56.5 600.38,-45.45"/>
<polygon fill="black" stroke="black" points="600.96,-48.92 609.64,-42.85 599.07,-42.18 600.96,-48.92"/>
<text xml:space="preserve" text-anchor="middle" x="523" y="-115.7" font-family="Times,serif" font-size="14.00">format HTML</text>
</g>
<!-- PROMPT -->
<g id="node7" class="node">
<title>PROMPT</title>
<polygon fill="#d0edd0" stroke="black" points="283.12,-276 198.88,-276 198.88,-240 289.12,-240 289.12,-270 283.12,-276"/>
<polyline fill="none" stroke="black" points="283.12,-276 283.12,-270"/>
<polyline fill="none" stroke="black" points="289.12,-270 283.12,-270"/>
<text xml:space="preserve" text-anchor="middle" x="244" y="-259.55" font-family="Helvetica,sans-Serif" font-size="11.00">System Prompt</text>
<text xml:space="preserve" text-anchor="middle" x="244" y="-247.55" font-family="Helvetica,sans-Serif" font-size="11.00">(prompt.py)</text>
</g>
<!-- PROMPT&#45;&gt;AGENT -->
<g id="edge7" class="edge">
<title>PROMPT&#45;&gt;AGENT</title>
<path fill="none" stroke="black" stroke-dasharray="5,2" d="M289.24,-258C321.14,-258 363.6,-258 393.06,-258"/>
</g>
<!-- GRADIO -->
<g id="node13" class="node">
<title>GRADIO</title>
<polygon fill="#f5f5f5" stroke="black" points="290.25,-222 197.75,-222 197.75,-186 290.25,-186 290.25,-222"/>
<text xml:space="preserve" text-anchor="middle" x="244" y="-205.55" font-family="Helvetica,sans-Serif" font-size="11.00">Gradio UI</text>
<text xml:space="preserve" text-anchor="middle" x="244" y="-193.55" font-family="Helvetica,sans-Serif" font-size="11.00">(localhost:7860)</text>
</g>
<!-- GRADIO&#45;&gt;AGENT -->
<g id="edge15" class="edge">
<title>GRADIO&#45;&gt;AGENT</title>
<path fill="none" stroke="black" stroke-dasharray="1,5" d="M290.55,-204.76C315.92,-206.46 347.64,-210.74 374.25,-221 382.07,-224.02 389.86,-228.39 396.97,-233.09"/>
<polygon fill="black" stroke="black" points="394.77,-235.82 404.96,-238.73 398.8,-230.1 394.77,-235.82"/>
<text xml:space="preserve" text-anchor="middle" x="341.25" y="-240.7" font-family="Times,serif" font-size="14.00">interactive</text>
<text xml:space="preserve" text-anchor="middle" x="341.25" y="-224.2" font-family="Times,serif" font-size="14.00">testing</text>
</g>
</g>
</svg>
